<?xml version="1.0" standalone="no"?>
<!DOCTYPE svg PUBLIC "-//W3C//DTD SVG 20010904//EN"
 "http://www.w3.org/TR/2001/REC-SVG-20010904/DTD/svg10.dtd">
<svg version="1.0" xmlns="http://www.w3.org/2000/svg"
 width="94.000000pt" height="94.000000pt" viewBox="0 0 94.000000 94.000000"
 preserveAspectRatio="xMidYMid meet">

<g transform="translate(0.000000,94.000000) scale(0.100000,-0.100000)"
fill="#000000" stroke="none">
<path d="M570 800 c-63 -4 -121 -8 -128 -9 -10 -1 -10 -6 -2 -21 11 -21 9 -24
-35 -33 -11 -3 33 -5 98 -6 133 -1 166 -12 197 -64 18 -28 20 -51 20 -190 0
-176 -7 -203 -63 -237 -19 -12 -50 -20 -77 -20 -25 0 -52 -5 -60 -10 -9 -6
-10 -10 -3 -10 18 0 74 -51 67 -61 -3 -5 25 -9 63 -9 79 0 122 20 150 72 15
28 18 65 21 255 3 204 2 225 -16 267 -21 46 -71 88 -102 84 -8 -1 -67 -5 -130
-8z"/>
<path d="M318 733 c7 -3 16 -2 19 1 4 3 -2 6 -13 5 -11 0 -14 -3 -6 -6z"/>
<path d="M142 707 c-21 -22 -22 -31 -22 -240 0 -232 5 -263 50 -302 l24 -20
-17 25 c-24 34 -21 60 9 91 l27 28 18 -22 c16 -19 16 -17 -2 20 -18 37 -20 57
-17 200 3 149 4 160 27 193 23 32 23 34 3 16 -20 -17 -22 -18 -22 -2 0 9 -4
15 -9 12 -5 -3 -14 1 -21 9 -17 20 -23 19 -48 -8z"/>
<path d="M275 720 c-3 -6 1 -7 9 -4 18 7 21 14 7 14 -6 0 -13 -4 -16 -10z"/>
<path d="M289 651 l-29 -29 0 -142 c0 -78 5 -150 10 -160 10 -19 11 -19 30 0
23 23 48 25 73 5 10 -7 41 -19 69 -25 35 -9 46 -15 37 -21 -9 -5 17 -9 64 -9
68 0 81 3 101 23 20 21 23 35 29 152 4 80 3 144 -3 167 -18 62 -35 68 -203 68
l-149 0 -29 -29z m350 -15 c9 -11 8 -17 -4 -30 -19 -18 -45 -11 -45 13 0 32
28 42 49 17z m-79 -63 c50 -51 59 -99 30 -158 -51 -105 -192 -108 -245 -5 -49
95 18 200 129 200 43 0 53 -4 86 -37z"/>
<path d="M399 541 c-77 -78 17 -201 114 -149 34 18 46 40 47 85 0 84 -100 124
-161 64z"/>
</g>
</svg>
