<?xml version="1.0" standalone="no"?>
<!DOCTYPE svg PUBLIC "-//W3C//DTD SVG 20010904//EN"
 "http://www.w3.org/TR/2001/REC-SVG-20010904/DTD/svg10.dtd">
<svg version="1.0" xmlns="http://www.w3.org/2000/svg"
 width="1024.000000pt" height="1024.000000pt" viewBox="0 0 1024.000000 1024.000000"
 preserveAspectRatio="xMidYMid meet">

<g transform="translate(0.000000,1024.000000) scale(0.100000,-0.100000)"
fill="#000000" stroke="none">
<path d="M3430 7984 c-8 -2 -64 -8 -125 -14 -164 -14 -302 -44 -410 -89 -45
-19 -160 -75 -165 -81 -3 -3 -21 -14 -40 -24 -125 -69 -288 -232 -359 -358
-12 -21 -29 -53 -39 -70 -19 -35 -72 -169 -90 -228 -18 -61 -41 -201 -52 -315
-12 -126 -12 -2668 0 -2775 l7 -65 1 93 c1 56 6 92 12 92 6 0 9 12 8 28 -3 27
-2 27 57 27 33 1 71 7 84 14 14 8 21 9 17 2 -4 -6 -2 -11 3 -11 6 0 11 10 11
23 0 18 2 19 10 7 6 -10 10 -11 10 -2 0 6 7 12 15 12 8 0 15 4 15 10 0 5 7 7
15 4 15 -6 21 -25 8 -23 -20 3 -43 -2 -43 -9 0 -5 15 -8 34 -8 19 1 34 3 34 6
0 3 0 16 1 30 2 24 3 24 11 4 5 -12 14 -25 21 -30 8 -4 10 -3 5 4 -13 22 6 37
21 17 7 -11 13 -16 13 -13 0 4 12 0 27 -7 28 -15 49 -3 36 19 -3 5 -1 6 5 2 6
-3 13 -2 17 4 4 6 10 8 14 5 5 -2 16 4 26 15 13 14 14 20 5 20 -7 0 -11 2 -8
5 14 14 38 -10 38 -39 1 -22 3 -27 9 -16 5 8 11 348 14 755 7 961 25 1189 113
1475 28 90 93 243 106 248 5 2 8 9 8 15 0 28 100 159 189 247 130 129 225 190
406 263 176 70 307 97 635 129 194 19 1773 19 1950 0 303 -33 476 -68 562
-113 10 -5 22 -9 28 -9 6 0 53 -21 105 -46 333 -161 546 -435 644 -829 31
-128 59 -335 73 -550 17 -273 17 -1501 0 -1720 -17 -215 -30 -340 -41 -400 -5
-27 -14 -79 -21 -115 -6 -36 -20 -90 -31 -121 -10 -30 -19 -61 -19 -68 0 -20
-109 -240 -143 -291 -46 -66 -56 -78 -127 -150 -125 -128 -274 -224 -440 -284
-41 -15 -84 -31 -95 -35 -21 -9 -90 -27 -160 -42 -83 -19 -155 -29 -300 -44
-82 -9 -161 -17 -175 -19 -14 -3 -44 -5 -68 -5 -24 -1 -41 -4 -38 -9 2 -4 23
-7 45 -7 23 0 41 -3 41 -7 0 -5 8 -8 18 -8 13 0 14 -2 4 -9 -7 -4 -12 -14 -10
-22 2 -9 -4 -13 -14 -11 -10 2 -18 -2 -18 -8 0 -5 7 -10 15 -10 14 0 19 -11
16 -37 -1 -7 5 -13 12 -13 8 0 17 -9 20 -21 5 -20 5 -20 -13 -4 -17 16 -18 16
-15 -2 2 -10 4 -20 6 -23 1 -3 2 -12 3 -20 1 -8 6 -15 11 -15 6 0 19 -5 29
-12 18 -10 18 -11 -4 -18 -18 -6 -20 -9 -9 -16 11 -7 11 -9 -3 -9 -10 0 -15
-7 -13 -17 2 -10 4 -22 4 -27 1 -4 9 -6 20 -3 12 3 18 -1 17 -12 0 -9 5 -15
12 -14 6 2 12 -2 12 -7 0 -10 -14 -14 -39 -10 -11 1 -10 -2 3 -15 21 -22 21
-31 -1 -14 -9 8 -14 9 -10 3 3 -6 0 -20 -8 -30 -20 -26 -18 -34 6 -34 12 0 17
-4 14 -11 -4 -6 -14 -8 -22 -5 -8 3 -12 2 -8 -3 3 -5 -1 -15 -8 -23 -14 -14
-11 -42 3 -33 4 3 6 -4 3 -14 -4 -16 -19 -21 -96 -29 -70 -7 29 -9 413 -11
633 -1 762 10 996 87 55 18 165 71 251 121 99 56 215 164 297 275 48 65 124
200 148 264 4 12 12 32 18 45 30 69 50 188 80 480 14 134 14 3386 0 3550 -31
364 -106 565 -297 800 -134 163 -373 302 -628 366 -204 50 -246 51 -2040 50
-924 -1 -1687 -3 -1695 -5z m2597 -5739 c0 -8 -4 -12 -9 -9 -5 3 -6 10 -3 15
9 13 12 11 12 -6z"/>
<path d="M4355 7044 c-131 -6 -336 -24 -395 -35 -30 -6 -80 -15 -110 -21 -81
-15 -208 -57 -265 -86 -139 -72 -279 -193 -322 -277 -9 -16 -19 -32 -22 -35
-11 -8 -83 -160 -92 -193 -4 -18 -15 -59 -24 -92 -26 -101 -43 -222 -56 -400
-22 -303 -16 -1655 8 -1632 4 5 10 29 12 50 1 4 9 3 19 -2 10 -5 27 -8 38 -7
10 2 25 -1 32 -7 6 -5 25 -7 41 -4 19 4 31 2 34 -6 3 -9 7 -9 18 1 15 14 49
16 49 2 0 -5 10 -14 22 -21 17 -9 20 -9 15 3 -3 9 1 15 9 15 9 0 13 -6 10 -14
-3 -8 -2 -12 3 -8 5 3 11 2 14 -2 2 -5 3 -3 1 3 -1 6 4 11 12 11 7 0 11 -3 9
-7 -2 -4 7 -5 21 -2 16 3 21 7 14 12 -8 5 -7 9 4 13 10 4 21 -1 28 -13 7 -11
16 -20 21 -20 4 0 6 4 3 9 -6 10 16 21 42 21 15 0 15 -2 2 -10 -11 -7 -3 -10
28 -10 24 0 41 -4 38 -8 -3 -5 2 -9 10 -9 8 0 13 6 10 12 -2 6 2 12 9 12 8 0
13 -5 12 -11 -1 -6 4 -10 11 -8 6 1 12 -2 12 -8 0 -5 4 -10 9 -10 4 0 8 10 7
22 -1 14 6 24 17 26 9 2 17 -3 17 -11 0 -7 7 -14 15 -14 8 0 15 5 15 10 0 5 6
4 13 -2 8 -6 16 -9 18 -6 3 2 6 -6 6 -18 2 -17 0 -19 -7 -7 -8 13 -13 11 -32
-9 l-23 -23 33 6 c21 3 31 2 27 -4 -3 -6 5 -10 18 -10 14 0 28 7 31 16 3 8 10
13 15 10 5 -4 11 -3 14 1 2 5 2 2 1 -4 -4 -15 27 -33 55 -33 12 0 21 -5 21
-11 0 -6 7 -8 16 -5 11 4 14 1 10 -12 -5 -15 0 -17 34 -17 22 0 40 -3 40 -8 0
-4 5 -5 10 -2 6 4 17 1 25 -5 11 -9 15 -9 15 -1 0 6 -5 11 -10 11 -6 0 -9 4
-8 9 2 4 -19 39 -45 76 -57 79 -97 151 -122 220 -10 28 -22 55 -26 60 -4 6
-14 35 -22 65 -9 30 -23 80 -32 110 -23 74 -33 414 -15 515 37 212 128 415
272 601 66 86 200 210 300 277 83 55 264 147 291 147 7 0 17 4 22 8 6 5 55 20
110 33 89 21 122 24 310 24 224 0 257 -5 425 -62 93 -32 244 -110 330 -171 92
-65 267 -244 323 -329 26 -40 47 -77 47 -82 0 -5 3 -11 8 -13 12 -5 93 -177
106 -228 4 -14 11 -34 16 -45 42 -97 66 -432 41 -579 -58 -336 -260 -669 -525
-861 -23 -16 -43 -32 -46 -35 -22 -24 -170 -102 -255 -135 -38 -15 -79 -31
-90 -35 -24 -10 -66 -20 -118 -27 -20 -3 -40 -9 -43 -14 -3 -5 -76 -9 -162
-10 -86 0 -166 -4 -177 -9 -13 -6 49 -9 165 -8 102 0 186 -4 187 -8 3 -8 -1
-10 -35 -13 -7 0 -10 -5 -7 -11 3 -5 1 -10 -4 -10 -17 0 -8 -24 13 -33 12 -5
16 -13 11 -25 -4 -12 0 -11 15 6 12 13 26 19 33 15 8 -5 7 -9 -5 -11 -24 -5
-23 -12 10 -47 15 -16 26 -33 24 -38 -1 -5 2 -6 7 -3 12 8 41 -4 41 -16 0 -6
-8 -7 -17 -4 -11 4 -8 -2 7 -14 14 -11 30 -18 37 -15 6 2 13 -1 15 -7 2 -6 13
-8 27 -3 18 6 21 9 10 16 -8 5 -9 9 -3 9 6 0 17 -6 23 -14 9 -11 6 -18 -16
-36 l-28 -21 28 4 c18 3 27 0 27 -10 0 -8 11 -25 24 -38 22 -22 22 -25 7 -41
-13 -15 -13 -16 0 -6 12 9 21 6 43 -15 17 -16 26 -32 23 -44 -3 -13 5 -22 29
-34 41 -19 52 -35 24 -35 -12 0 -18 5 -15 10 3 6 2 10 -4 10 -5 0 -9 -9 -8
-20 1 -17 6 -20 29 -15 21 5 28 3 28 -8 0 -17 -26 -30 -43 -21 -7 3 -1 -3 13
-14 13 -11 28 -18 32 -16 4 3 8 -5 8 -16 0 -15 5 -20 14 -17 8 3 17 -1 20 -9
4 -9 2 -12 -5 -8 -7 4 -10 1 -7 -7 3 -8 -2 -20 -11 -26 -14 -11 -14 -14 -1
-23 19 -13 33 -13 25 0 -10 16 0 12 25 -10 25 -21 21 -41 -4 -21 -10 8 -16 9
-21 1 -3 -5 -30 -10 -60 -10 -30 0 -57 -5 -61 -12 -5 -8 47 -9 207 -5 118 3
228 8 244 11 17 3 68 10 115 16 162 21 294 57 410 112 138 66 214 124 278 213
20 28 39 52 43 55 13 9 88 157 103 201 80 239 97 422 111 1199 8 391 -7 1132
-25 1300 -42 381 -157 638 -353 786 -66 50 -228 134 -258 134 -10 0 -21 5 -24
10 -3 6 -17 10 -30 10 -13 0 -26 4 -29 9 -3 4 -25 11 -48 15 -24 4 -65 12 -93
17 -197 37 -283 40 -1090 43 -440 2 -836 2 -880 0z m2230 -424 c53 -31 120
-104 145 -157 31 -66 28 -189 -6 -259 -86 -176 -312 -237 -461 -124 -56 42
-108 115 -124 173 -15 57 -7 174 15 219 37 77 109 140 196 172 8 3 56 4 105 2
73 -2 98 -7 130 -26z m-2612 -2320 c3 -11 1 -18 -4 -14 -5 3 -9 -1 -9 -8 0 -7
-6 -4 -12 6 -8 15 -8 21 1 24 9 3 9 8 -1 20 -11 15 -11 15 3 4 9 -7 19 -22 22
-32z m-674 27 c-2 -1 -12 -9 -21 -16 -15 -12 -18 -11 -18 3 0 10 8 16 22 16
12 0 19 -1 17 -3z m115 -15 c3 -5 -1 -9 -9 -9 -8 0 -12 4 -9 9 3 4 7 8 9 8 2
0 6 -4 9 -8z m516 -2 c0 -5 -5 -10 -11 -10 -5 0 -7 5 -4 10 3 6 8 10 11 10 2
0 4 -4 4 -10z m-100 -56 c0 -8 -5 -12 -10 -9 -6 4 -8 11 -5 16 9 14 15 11 15
-7z m110 -34 c0 -5 -5 -10 -11 -10 -5 0 -7 5 -4 10 3 6 8 10 11 10 2 0 4 -4 4
-10z m1720 -940 c0 -5 -5 -10 -11 -10 -5 0 -7 5 -4 10 3 6 8 10 11 10 2 0 4
-4 4 -10z"/>
<path d="M4980 5940 c-117 -19 -161 -30 -196 -48 -10 -5 -30 -14 -44 -20 -72
-29 -101 -45 -165 -90 -357 -253 -496 -659 -372 -1087 16 -57 81 -188 126
-254 38 -55 223 -241 241 -241 5 0 15 -6 22 -12 12 -11 51 -35 98 -59 35 -18
90 -38 160 -57 256 -71 467 -53 697 60 106 52 111 55 208 140 155 136 244 286
306 513 9 33 14 103 13 205 0 128 -4 171 -23 245 -52 205 -191 406 -366 532
-73 53 -223 129 -284 145 -165 43 -282 51 -421 28z"/>
<path d="M4698 3723 c7 -3 16 -2 19 1 4 3 -2 6 -13 5 -11 0 -14 -3 -6 -6z"/>
<path d="M4850 3680 c0 -5 7 -10 15 -10 8 0 15 5 15 10 0 6 -7 10 -15 10 -8 0
-15 -4 -15 -10z"/>
<path d="M5250 3580 c0 -5 5 -10 10 -10 6 0 10 5 10 10 0 6 -4 10 -10 10 -5 0
-10 -4 -10 -10z"/>
<path d="M5540 3410 c-9 -6 -10 -10 -3 -10 6 0 15 5 18 10 8 12 4 12 -15 0z"/>
<path d="M5743 3005 c0 -8 4 -12 9 -9 5 3 6 10 3 15 -9 13 -12 11 -12 -6z"/>
</g>
</svg>
